<?xml version="1.0" standalone="no"?><!DOCTYPE svg PUBLIC "-//W3C//DTD SVG 1.1//EN" "http://www.w3.org/Graphics/SVG/1.1/DTD/svg11.dtd"><svg t="1680227174726" class="icon" viewBox="0 0 1152 1024" version="1.1" xmlns="http://www.w3.org/2000/svg" p-id="2765" width="144" height="128" xmlns:xlink="http://www.w3.org/1999/xlink"><path d="M1138.70922 463.262C1025.94122 271.898 815.62122 144 576.00122 144 336.28122 144 126.00922 271.988 13.29322 463.262a95.998 95.998 0 0 0 0 97.478C126.06322 752.102 336.38122 880 576.00122 880c239.72 0 449.992-127.988 562.708-319.262a95.994 95.994 0 0 0 0-97.476zM576.00122 784c-205.112 0-384.182-109.402-480-272 88.314-149.866 247.354-254.54 432.324-270.014C547.91722 262.156 560.00122 289.66 560.00122 320c0 61.856-50.144 112-112 112s-112-50.144-112-112l0.002-0.084C315.58922 358.086 304.00122 401.688 304.00122 448c0 150.222 121.778 272 272 272s272-121.778 272-272c0-62.062-20.8-119.258-55.79-165.03C903.40922 329.276 996.01922 410.212 1056.00122 512c-95.816 162.598-274.888 272-480 272z" fill="#42b883" p-id="2766"></path></svg>